<svg xmlns="http://www.w3.org/2000/svg" viewBox="0 0 32 32" id="agreement">
  <path d="M9.356 14.04c1.906 0 3.456-1.55 3.456-3.456s-1.55-3.455-3.456-3.455-3.455 1.55-3.455 3.455 1.55 3.455 3.455 3.455zm13.288 0c1.905 0 3.455-1.55 3.455-3.456s-1.55-3.455-3.455-3.455-3.456 1.55-3.456 3.455 1.55 3.455 3.456 3.455zm.954 1.018c-1.098-.024-2.145.386-3.04.998l-2.451 1.518a3.98 3.98 0 0 1-4.214 0l-2.45-1.518c-.896-.612-1.944-1.022-3.041-.998A6.417 6.417 0 0 0 2 21.467v2.4a1 1 0 1 0 2 0v-2.4a4.414 4.414 0 0 1 4.41-4.41l.008-.001a2.97 2.97 0 0 1 1.562.446l2.86 1.771c.974.605 2.067.907 3.16.907s2.186-.302 3.16-.907l2.86-1.771a2.963 2.963 0 0 1 1.562-.446l.008.002A4.414 4.414 0 0 1 28 21.467v2.404a1 1 0 1 0 2 0v-2.404a6.417 6.417 0 0 0-6.402-6.409z"></path>
  <path d="M25.1 18.963a1 1 0 0 0-1 1v3.908a1 1 0 1 0 2 0v-3.908a1 1 0 0 0-1-1zm-18.2.004a1 1 0 0 0-1 1v3.904a1 1 0 1 0 2 0v-3.904a1 1 0 0 0-1-1zm4.912.997a1 1 0 0 0-1 1v2.903a1 1 0 1 0 2 0v-2.903a1 1 0 0 0-1-1zm8.376-.001a1 1 0 0 0-1 1v2.904a1 1 0 1 0 2 0v-2.904a1 1 0 0 0-1-1z"></path>
</svg>
