<svg xmlns="http://www.w3.org/2000/svg" enable-background="new 0 0 48 48" viewBox="0 0 48 48" id="medical-center">
  <path d="M19,25h2v2c0,0.552,0.447,1,1,1h4c0.553,0,1-0.448,1-1v-2h2c0.553,0,1-0.448,1-1v-4c0-0.552-0.447-1-1-1h-2v-2
	c0-0.552-0.447-1-1-1h-4c-0.553,0-1,0.448-1,1v2h-2c-0.553,0-1,0.448-1,1v4C18,24.552,18.447,25,19,25z M20,21h2
	c0.553,0,1-0.448,1-1v-2h2v2c0,0.552,0.447,1,1,1h2v2h-2c-0.553,0-1,0.448-1,1v2h-2v-2c0-0.552-0.447-1-1-1h-2V21z M42,42V14h3
	c0.379,0,0.725-0.214,0.895-0.553c0.169-0.339,0.133-0.744-0.095-1.047l-6-8C39.612,4.148,39.315,4,39,4H9
	C8.686,4,8.389,4.148,8.2,4.4l-6,8c-0.228,0.303-0.264,0.708-0.095,1.047C2.276,13.786,2.621,14,3,14h3v28H2v2h44v-2H42z M9.5,6h29
	l4.5,6H5L9.5,6z M8,14h32v28H30V31c0-0.552-0.447-1-1-1H19c-0.553,0-1,0.448-1,1v11H8V14z M28,42h-8V32h8V42z M33,36h4
	c0.553,0,1-0.448,1-1v-4c0-0.552-0.447-1-1-1h-4c-0.553,0-1,0.448-1,1v4C32,35.552,32.447,36,33,36z M34,32h2v2h-2V32z M15,30h-4
	c-0.553,0-1,0.448-1,1v4c0,0.552,0.447,1,1,1h4c0.553,0,1-0.448,1-1v-4C16,30.448,15.553,30,15,30z M14,34h-2v-2h2V34z"></path>
</svg>
