<svg xmlns="http://www.w3.org/2000/svg" viewBox="0 0 32 32" id="measuring-cups">
  <g>
    <path d="M28.12 30.25l0-.09a.49.49 0 0 0 0-.1.47.47 0 0 0 0-.06s0 0 0 0a.48.48 0 0 0 0-.1.49.49 0 0 0 0-.1v0A6.38 6.38 0 0 0 26 27.54V4.5a.5.5 0 0 0 .5-.5V2a.5.5 0 0 0-.5-.5H19a.5.5 0 0 0-.5.5V4a.5.5 0 0 0 .5.5v23a6.38 6.38 0 0 0-2.12 2.21v0a.49.49 0 0 0 0 .1.48.48 0 0 0 0 .1s0 0 0 0a.47.47 0 0 0 0 .06.49.49 0 0 0 0 .1l0 .09.05.08.08.07 0 0h0a.49.49 0 0 0 .23.06H27.69a.49.49 0 0 0 .23-.06h0l0 0 .08-.07zM19.5 2.5h6v1h-6zm5.5 2V14.73a6.78 6.78 0 0 0-2.69.52 5.82 5.82 0 0 1-2.31.44V13h2a.5.5 0 0 0 0-1H20V11h2a.5.5 0 0 0 0-1H20V9h2a.5.5 0 0 0 0-1H20V4.5zM19.75 28.24h0a5.55 5.55 0 0 1 5.49 0h0a5.4 5.4 0 0 1 1.48 1.26H18.27A5.4 5.4 0 0 1 19.75 28.24zM15.18 30.06a.47.47 0 0 0 0-.06s0 0 0 0a.48.48 0 0 0 0-.1.49.49 0 0 0 0-.1v0A6.38 6.38 0 0 0 13 27.54V2a.5.5 0 0 0-.5-.5h-7a.5.5 0 0 0-.45.72l.58 1.16A3.43 3.43 0 0 1 6 4.94v22.6a6.38 6.38 0 0 0-2.12 2.21v0a.49.49 0 0 0 0 .1.48.48 0 0 0 0 .1s0 0 0 0a.47.47 0 0 0 0 .06.49.49 0 0 0 0 .1l0 .09.05.08.08.07 0 0h0a.49.49 0 0 0 .23.06H14.69a.49.49 0 0 0 .23-.06h0l0 0 .08-.07.05-.08 0-.09A.49.49 0 0 0 15.18 30.06zM12 2.5V14.73a6.78 6.78 0 0 0-2.69.52A5.82 5.82 0 0 1 7 15.69V13H9a.5.5 0 0 0 0-1H7V11H9a.5.5 0 0 0 0-1H7V9H9A.5.5 0 0 0 9 8H7V4.94a4.43 4.43 0 0 0-.47-2L6.31 2.5zM6.75 28.24h0a5.55 5.55 0 0 1 5.49 0h0a5.4 5.4 0 0 1 1.48 1.26H5.27A5.4 5.4 0 0 1 6.75 28.24z"></path>
  </g>
</svg>
