<svg xmlns="http://www.w3.org/2000/svg" fill-rule="evenodd" stroke-linejoin="round" stroke-miterlimit="2" clip-rule="evenodd" viewBox="0 0 32 32" id="park">
  <path d="M4.129 9.989 4.126 10H3a1 1 0 0 0 0 2h1v4a1 1 0 0 0 .445.832L7 18.535V28H2a1 1 0 0 0 0 2h28a1 1 0 0 0 0-2h-1v-9a1 1 0 0 0-2 0v1h-9v-1a1 1 0 0 0-2 0v9H9v-9.465l2.555-1.703A1 1 0 0 0 12 16v-4h1a1 1 0 0 0 0-2h-1.126l-.003-.011a3.992 3.992 0 0 0-1.272-2.029 4.007 4.007 0 0 0-2.153-.935 4.01 4.01 0 0 0-2.54.567 4.044 4.044 0 0 0-1.601 1.874c-.071.17-.129.345-.176.523ZM18 26v2h9v-2h-9Zm0-4v2h9v-2h-9Zm-8-10H6v3.465l2 1.333 2-1.333V12Zm10.064-6.753C18.804 5.825 18 6.944 18 8.167c0 1.764 1.732 3.333 4 3.333a4.65 4.65 0 0 0 2.001-.443A4.633 4.633 0 0 0 26 11.5c2.268 0 4-1.569 4-3.333 0-1.223-.804-2.342-2.064-2.92C27.603 3.736 26.013 2.5 24 2.5s-3.603 1.236-3.936 2.747ZM9.732 10a1.999 1.999 0 0 0-3.464 0h3.464Zm11.537-3.07c.46-.127.767-.561.733-1.037L22 5.833c0-.341.205-.636.493-.86.385-.299.92-.473 1.507-.473.587 0 1.122.174 1.507.473.288.224.493.519.493.86l-.002.06c-.034.476.273.91.733 1.037.695.19 1.269.632 1.269 1.237 0 .341-.205.636-.493.86-.385.299-.92.473-1.507.473-.548 0-1.05-.152-1.428-.415a.999.999 0 0 0-1.144 0c-.378.263-.88.415-1.428.415-.587 0-1.122-.174-1.507-.473-.288-.224-.493-.519-.493-.86 0-.605.574-1.047 1.269-1.237Z"></path>
</svg>
