<svg xmlns="http://www.w3.org/2000/svg" fill-rule="evenodd" stroke-linejoin="round" stroke-miterlimit="2" clip-rule="evenodd" viewBox="0 0 513 513" id="id-card">
  <rect width="512" height="512" x=".551" y=".5" fill="none"></rect>
  <path d="M46.5,380.28c-11.962,-0.593 -23.314,-5.607 -31.824,-14.116c-9.077,-9.077 -14.176,-21.388 -14.176,-34.224l0,-207.822c0,-12.836 5.099,-25.147 14.176,-34.224c9.077,-9.077 21.388,-14.176 34.224,-14.176l353.2,0c12.837,0 25.147,5.099 34.224,14.176c8.909,8.909 13.986,20.933 14.171,33.512l12.974,0c13.004,0 25.475,5.165 34.67,14.36c9.195,9.195 14.361,21.667 14.361,34.67l0,215.815c0,13.004 -5.166,25.475 -14.361,34.67c-9.195,9.195 -21.666,14.361 -34.67,14.361l-367.938,0c-13.004,0 -25.475,-5.166 -34.67,-14.361c-9.195,-9.195 -14.361,-21.666 -14.361,-34.67l0,-7.971Zm404,-224.874l0,176.534c0,12.836 -5.099,25.147 -14.176,34.224c-9.077,9.076 -21.387,14.176 -34.224,14.176l-323.6,0l0,7.911c0,4.517 1.794,8.849 4.988,12.043c3.194,3.193 7.526,4.988 12.043,4.988l367.938,0c4.517,0 8.849,-1.795 12.043,-4.988c3.194,-3.194 4.988,-7.526 4.988,-12.043l0,-215.815c0,-4.516 -1.794,-8.848 -4.988,-12.042c-3.194,-3.194 -7.526,-4.988 -12.043,-4.988l-12.969,0Zm-32,-31.288c0,-4.349 -1.728,-8.521 -4.803,-11.596c-3.076,-3.076 -7.247,-4.804 -11.597,-4.804l-353.2,0c-4.349,0 -8.521,1.728 -11.596,4.804c-3.076,3.075 -4.804,7.247 -4.804,11.596l0,207.822c0,4.349 1.728,8.521 4.804,11.596c3.075,3.076 7.247,4.804 11.596,4.804l353.2,0c4.35,0 8.521,-1.728 11.597,-4.804c3.075,-3.075 4.803,-7.247 4.803,-11.596l0,-207.822Zm-145.854,202.821l109.303,0c8.831,0 16,-7.169 16,-16c0,-8.831 -7.169,-16 -16,-16l-109.303,0c-8.831,0 -16,7.169 -16,16c0,8.831 7.169,16 16,16Zm-182.793,-103.599c-2.422,-7.042 -3.773,-14.731 -3.773,-22.814c0,-37.398 28.258,-64.826 58.873,-64.826c30.616,0 58.873,27.428 58.873,64.826c0,8.084 -1.351,15.774 -3.772,22.816c20.222,13.166 33.57,33.207 36.552,55.153c1.478,10.535 -1.682,21.194 -8.663,29.222c-6.981,8.028 -17.097,12.637 -27.73,12.637c-19.68,0.004 -90.833,0.004 -110.514,0.004c-10.639,0 -20.757,-4.61 -27.738,-12.638c-6.982,-8.029 -10.142,-18.689 -8.682,-29.098c3,-22.046 16.356,-42.113 36.574,-55.282Zm41.649,8.471c0.011,-0.209 -0.022,-1.312 -0.096,-1.639c-0.181,-0.802 -0.577,-1.544 -1.149,-2.143c-0.13,-0.136 -1.277,-1.122 -1.693,-1.513c-6.379,-5.994 -10.484,-15.411 -10.484,-25.99c0,-18.117 12.041,-32.826 26.873,-32.826c14.832,0 26.873,14.709 26.873,32.826c0,10.572 -4.1,19.984 -10.464,25.99c-0.419,0.395 -1.563,1.382 -1.689,1.513c-0.575,0.598 -0.973,1.34 -1.156,2.143c-0.074,0.327 -0.124,1.43 -0.113,1.639c0.26,5.034 3.615,9.415 8.462,10.952c20.5,6.484 35.553,21.797 38.05,40.176c0.191,1.363 -0.217,2.742 -1.121,3.78c-0.903,1.039 -2.211,1.635 -3.588,1.635c-19.679,0.004 -90.829,0.004 -110.508,0.004c-1.377,0 -2.687,-0.597 -3.591,-1.636c-0.904,-1.04 -1.313,-2.42 -1.122,-3.784c2.502,-18.378 17.554,-33.691 38.055,-40.175c4.846,-1.537 8.201,-5.918 8.461,-10.952Zm141.144,46.776l66.648,0c8.831,0 16,-7.169 16,-16c0,-8.83 -7.169,-16 -16,-16l-66.648,0c-8.831,0 -16,7.17 -16,16c0,8.831 7.169,16 16,16Zm0,-69.116l109.303,0c8.831,0 16,-7.17 16,-16c0,-8.831 -7.169,-16 -16,-16l-109.303,0c-8.831,0 -16,7.169 -16,16c0,8.83 7.169,16 16,16Zm0,-48.352l66.648,0c8.831,0 16,-7.169 16,-16c0,-8.831 -7.169,-16 -16,-16l-66.648,0c-8.831,0 -16,7.169 -16,16c0,8.831 7.169,16 16,16Z"></path>
</svg>
