<svg xmlns="http://www.w3.org/2000/svg" width="48" height="48" id="performance">
  <path d="M24 10.94a15.29 15.29 0 0 1 15.36 15.23 15.07 15.07 0 0 1-3.42 9.58l-1.11 1.31-2-1.69.78-.87.08-.08a12.56 12.56 0 0 0 3.06-7.48H33.6v-2.56h3.07a12.5 12.5 0 0 0-2.74-6.2l-1.87 1.87-1.81-1.81 1.87-1.87a12.86 12.86 0 0 0-6.84-2.81v3.78h-2.56v-3.78a12.83 12.83 0 0 0-6.84 2.81l1.87 1.87-1.81 1.81-1.87-1.87a12.5 12.5 0 0 0-2.74 6.2h3.07v2.56h-3.18A12.28 12.28 0 0 0 14 34.08l1.13 1.29-1.91 1.69-.84-1a14.78 14.78 0 0 1-3.76-9.94A15.29 15.29 0 0 1 24 10.94ZM28.74 21l1.81 1.8-4.1 4.09a2.55 2.55 0 0 1-4.26 2.46 2.54 2.54 0 0 1 0-3.6 2.52 2.52 0 0 1 2.24-.71l.22.05L28.74 21Z"></path>
</svg>
