<svg xmlns="http://www.w3.org/2000/svg" viewBox="0 0 24 24" id="contact">
  <path d="M19,2.25H7c-1.52,0-2.75,1.23-2.75,2.75v1.25h-1.25c-.41,0-.75,.34-.75,.75s.34,.75,.75,.75h1.25v3.5h-1.25c-.41,0-.75,.34-.75,.75s.34,.75,.75,.75h1.25v3.5h-1.25c-.41,0-.75,.34-.75,.75s.34,.75,.75,.75h1.25v1.25c0,1.52,1.23,2.75,2.75,2.75h12c1.52,0,2.75-1.23,2.75-2.75V5c0-1.52-1.23-2.75-2.75-2.75Zm1.25,16.75c0,.69-.56,1.25-1.25,1.25H7c-.69,0-1.25-.56-1.25-1.25v-1.25h.25c.41,0,.75-.34,.75-.75s-.34-.75-.75-.75h-.25v-3.5h.25c.41,0,.75-.34,.75-.75s-.34-.75-.75-.75h-.25v-3.5h.25c.41,0,.75-.34,.75-.75s-.34-.75-.75-.75h-.25v-1.25c0-.69,.56-1.25,1.25-1.25h12c.69,0,1.25,.56,1.25,1.25v14Z"></path>
  <path d="M13 11.75c1.52 0 2.75-1.23 2.75-2.75s-1.23-2.75-2.75-2.75-2.75 1.23-2.75 2.75 1.23 2.75 2.75 2.75zm0-4c.69 0 1.25.56 1.25 1.25s-.56 1.25-1.25 1.25-1.25-.56-1.25-1.25.56-1.25 1.25-1.25zM14 13.25h-2c-1.52 0-2.75 1.23-2.75 2.75v1c0 .41.34.75.75.75s.75-.34.75-.75v-1c0-.69.56-1.25 1.25-1.25h2c.69 0 1.25.56 1.25 1.25v1c0 .41.34.75.75.75s.75-.34.75-.75v-1c0-1.52-1.23-2.75-2.75-2.75z"></path>
</svg>
