<svg xmlns="http://www.w3.org/2000/svg" viewBox="0 0 64 64" id="surgery-tools">
  <rect width="2" height="2.063" x="37" y="17.063"></rect>
  <path d="M31 13v4.721a4.06 4.06 0 0 0 1.2 2.892l.189.188A2.082 2.082 0 0 1 33 22.279v2.277A3.987 3.987 0 0 0 31 28V53.5A3.5 3.5 0 0 0 34.5 57h1A3.5 3.5 0 0 0 39 53.5V21.125H37V24H35V22.279a4.067 4.067 0 0 0-1.2-2.893l-.19-.189A2.075 2.075 0 0 1 33 17.721V13a5.008 5.008 0 0 1 4-4.9v6.962h2V6H38A7.009 7.009 0 0 0 31 13zm6 40.5A1.5 1.5 0 0 1 35.5 55h-1A1.5 1.5 0 0 1 33 53.5V31h4zM37 26v3H33V28a2 2 0 0 1 2-2zM62.025 45.913a9.384 9.384 0 0 0-2.251-5.58 13.44 13.44 0 0 0-1.639-1.547 5.37 5.37 0 0 1-1.272-1.338 6.494 6.494 0 0 1-.84-4.344.951.951 0 0 0-.023-.25V27.238l.036-.049L53.088 6.515a1.1 1.1 0 0 0-2.177 0L48.03 26.726a1.162 1.162 0 0 0 .01.176.993.993 0 0 0-.04.2v5.8c0 .03.015.055.017.085a.8.8 0 0 0-.011.119 6.5 6.5 0 0 1-.84 4.345A5.379 5.379 0 0 1 45.9 38.786a13.434 13.434 0 0 0-1.64 1.547A9.385 9.385 0 0 0 42 45.915 10.81 10.81 0 0 0 43.085 51.4 13.766 13.766 0 0 0 47.4 56.8a1 1 0 0 0 1.4-.2 1 1 0 0 0-.2-1.4 11.759 11.759 0 0 1-3.688-4.6A8.888 8.888 0 0 1 44 46.084a7.412 7.412 0 0 1 1.749-4.417 11.365 11.365 0 0 1 1.42-1.336 7.26 7.26 0 0 0 1.669-1.779A7.939 7.939 0 0 0 50.053 34h3.923A7.934 7.934 0 0 0 55.2 38.551a7.268 7.268 0 0 0 1.669 1.78 11.365 11.365 0 0 1 1.42 1.336 7.406 7.406 0 0 1 1.749 4.418 8.887 8.887 0 0 1-.919 4.512 11.756 11.756 0 0 1-3.687 4.6 1 1 0 1 0 1.2 1.6 13.766 13.766 0 0 0 4.312-5.4A10.814 10.814 0 0 0 62.025 45.913zM50 28h4v4H50zm2-14.948L53.847 26H50.154z"></path>
  <rect width="2" height="2" x="51" y="29"></rect>
  <path d="M21.978,47.384a4.944,4.944,0,0,0-2.741,1.6L16.4,34.828,21.94,7.185a1,1,0,1,0-1.961-.393l-4.6,22.946-4.6-22.946a1,1,0,0,0-1.961.393l5.538,27.643-2.835,14.15A4.985,4.985,0,0,0,2.9,51.305a5,5,0,0,0,9.805,1.964l2.674-13.35,2.675,13.35a5.01,5.01,0,0,0,4.9,4.018,4.918,4.918,0,0,0,.982-.1,5,5,0,1,0-1.963-9.8Zm-12.509,7.4a2.971,2.971,0,0,1-2.252.446,3,3,0,1,1,3.53-2.353A2.976,2.976,0,0,1,9.469,54.783Zm14.08.446A3,3,0,1,1,25.9,51.7,3.008,3.008,0,0,1,23.549,55.229Z"></path>
</svg>
